<mxfile host="app.diagrams.net" agent="Mozilla/5.0 (Windows NT 10.0; Win64; x64) AppleWebKit/537.36 (KHTML, like Gecko) Chrome/136.0.0.0 Safari/537.36" version="27.0.6">
  <diagram name="Trang-1" id="F4sz9MKST3dTjjMEhHXN">
    <mxGraphModel dx="786" dy="1633" grid="1" gridSize="10" guides="1" tooltips="1" connect="1" arrows="1" fold="1" page="1" pageScale="1" pageWidth="827" pageHeight="1169" math="0" shadow="0">
      <root>
        <mxCell id="0" />
        <mxCell id="1" parent="0" />
        <mxCell id="KFn7MSVlhM-9lN72IL1n-1" value="&lt;div&gt;Blood Donation Support System&lt;/div&gt;" style="ellipse;whiteSpace=wrap;html=1;" parent="1" vertex="1">
          <mxGeometry x="310" y="180" width="140" height="120" as="geometry" />
        </mxCell>
        <mxCell id="KFn7MSVlhM-9lN72IL1n-3" value="Guest" style="rounded=0;whiteSpace=wrap;html=1;" parent="1" vertex="1">
          <mxGeometry x="320" y="-10" width="120" height="60" as="geometry" />
        </mxCell>
        <mxCell id="KFn7MSVlhM-9lN72IL1n-4" value="Member" style="rounded=0;whiteSpace=wrap;html=1;" parent="1" vertex="1">
          <mxGeometry x="50" y="120" width="120" height="60" as="geometry" />
        </mxCell>
        <mxCell id="KFn7MSVlhM-9lN72IL1n-5" value="Staff" style="rounded=0;whiteSpace=wrap;html=1;" parent="1" vertex="1">
          <mxGeometry x="610" y="120" width="120" height="60" as="geometry" />
        </mxCell>
        <mxCell id="KFn7MSVlhM-9lN72IL1n-6" value="Admin" style="rounded=0;whiteSpace=wrap;html=1;" parent="1" vertex="1">
          <mxGeometry x="50" y="330" width="120" height="60" as="geometry" />
        </mxCell>
        <mxCell id="KFn7MSVlhM-9lN72IL1n-7" value="QR code reader" style="rounded=0;whiteSpace=wrap;html=1;" parent="1" vertex="1">
          <mxGeometry x="330" y="400" width="120" height="60" as="geometry" />
        </mxCell>
        <mxCell id="KFn7MSVlhM-9lN72IL1n-8" value="Medical facility" style="rounded=0;whiteSpace=wrap;html=1;" parent="1" vertex="1">
          <mxGeometry x="610" y="330" width="120" height="60" as="geometry" />
        </mxCell>
        <mxCell id="KFn7MSVlhM-9lN72IL1n-9" value="" style="endArrow=classic;html=1;rounded=0;entryX=0.75;entryY=1;entryDx=0;entryDy=0;exitX=0.69;exitY=0.067;exitDx=0;exitDy=0;exitPerimeter=0;" parent="1" source="KFn7MSVlhM-9lN72IL1n-1" target="KFn7MSVlhM-9lN72IL1n-3" edge="1">
          <mxGeometry width="50" height="50" relative="1" as="geometry">
            <mxPoint x="411.9999999999999" y="183.3599999999999" as="sourcePoint" />
            <mxPoint x="415.4" y="50" as="targetPoint" />
          </mxGeometry>
        </mxCell>
        <mxCell id="KFn7MSVlhM-9lN72IL1n-16" value="&lt;div&gt;information about medical facilities,&lt;/div&gt;&lt;div&gt;blood type documents,&lt;/div&gt;&lt;div&gt;experience sharing blog&lt;/div&gt;" style="edgeLabel;html=1;align=center;verticalAlign=middle;resizable=0;points=[];" parent="KFn7MSVlhM-9lN72IL1n-9" vertex="1" connectable="0">
          <mxGeometry x="0.2862" y="-3" relative="1" as="geometry">
            <mxPoint x="32" y="-16" as="offset" />
          </mxGeometry>
        </mxCell>
        <mxCell id="KFn7MSVlhM-9lN72IL1n-12" value="" style="endArrow=classic;html=1;rounded=0;exitX=0.2;exitY=0.983;exitDx=0;exitDy=0;exitPerimeter=0;" parent="1" source="KFn7MSVlhM-9lN72IL1n-3" edge="1">
          <mxGeometry width="50" height="50" relative="1" as="geometry">
            <mxPoint x="380" y="270" as="sourcePoint" />
            <mxPoint x="344" y="190" as="targetPoint" />
          </mxGeometry>
        </mxCell>
        <mxCell id="KFn7MSVlhM-9lN72IL1n-13" value="Requires registration&lt;div&gt;&amp;nbsp;or login&lt;/div&gt;" style="edgeLabel;html=1;align=center;verticalAlign=middle;resizable=0;points=[];" parent="KFn7MSVlhM-9lN72IL1n-12" vertex="1" connectable="0">
          <mxGeometry x="-0.6579" y="2" relative="1" as="geometry">
            <mxPoint x="7" y="47" as="offset" />
          </mxGeometry>
        </mxCell>
        <mxCell id="KFn7MSVlhM-9lN72IL1n-14" value="" style="endArrow=classic;html=1;rounded=0;exitX=1;exitY=0.25;exitDx=0;exitDy=0;entryX=0;entryY=0;entryDx=0;entryDy=0;" parent="1" source="KFn7MSVlhM-9lN72IL1n-4" target="KFn7MSVlhM-9lN72IL1n-1" edge="1">
          <mxGeometry width="50" height="50" relative="1" as="geometry">
            <mxPoint x="380" y="270" as="sourcePoint" />
            <mxPoint x="430" y="220" as="targetPoint" />
          </mxGeometry>
        </mxCell>
        <mxCell id="KFn7MSVlhM-9lN72IL1n-15" value="Blood donation&lt;div&gt;&amp;nbsp;registration request&lt;/div&gt;" style="edgeLabel;html=1;align=center;verticalAlign=middle;resizable=0;points=[];" parent="KFn7MSVlhM-9lN72IL1n-14" vertex="1" connectable="0">
          <mxGeometry x="-0.3439" y="2" relative="1" as="geometry">
            <mxPoint x="18" y="-6" as="offset" />
          </mxGeometry>
        </mxCell>
        <mxCell id="KFn7MSVlhM-9lN72IL1n-17" value="" style="endArrow=classic;html=1;rounded=0;exitX=-0.014;exitY=0.431;exitDx=0;exitDy=0;exitPerimeter=0;entryX=1;entryY=1;entryDx=0;entryDy=0;" parent="1" source="KFn7MSVlhM-9lN72IL1n-1" target="KFn7MSVlhM-9lN72IL1n-4" edge="1">
          <mxGeometry width="50" height="50" relative="1" as="geometry">
            <mxPoint x="300" y="230" as="sourcePoint" />
            <mxPoint x="153" y="181" as="targetPoint" />
          </mxGeometry>
        </mxCell>
        <mxCell id="KFn7MSVlhM-9lN72IL1n-21" value="Blood donation&amp;nbsp;&lt;div&gt;schedule information&lt;/div&gt;" style="edgeLabel;html=1;align=center;verticalAlign=middle;resizable=0;points=[];" parent="KFn7MSVlhM-9lN72IL1n-17" vertex="1" connectable="0">
          <mxGeometry x="0.0885" y="-2" relative="1" as="geometry">
            <mxPoint x="6" y="-2" as="offset" />
          </mxGeometry>
        </mxCell>
        <mxCell id="KFn7MSVlhM-9lN72IL1n-22" value="" style="endArrow=classic;html=1;rounded=0;exitX=0.076;exitY=0.769;exitDx=0;exitDy=0;exitPerimeter=0;entryX=0.122;entryY=1.033;entryDx=0;entryDy=0;entryPerimeter=0;" parent="1" source="KFn7MSVlhM-9lN72IL1n-1" target="KFn7MSVlhM-9lN72IL1n-4" edge="1">
          <mxGeometry width="50" height="50" relative="1" as="geometry">
            <mxPoint x="220" y="250" as="sourcePoint" />
            <mxPoint x="110" y="200" as="targetPoint" />
          </mxGeometry>
        </mxCell>
        <mxCell id="KFn7MSVlhM-9lN72IL1n-23" value="Blood donation&amp;nbsp;&lt;div&gt;history information&lt;/div&gt;" style="edgeLabel;html=1;align=center;verticalAlign=middle;resizable=0;points=[];" parent="KFn7MSVlhM-9lN72IL1n-22" vertex="1" connectable="0">
          <mxGeometry x="0.1707" y="2" relative="1" as="geometry">
            <mxPoint x="40" y="19" as="offset" />
          </mxGeometry>
        </mxCell>
        <mxCell id="KFn7MSVlhM-9lN72IL1n-24" value="" style="endArrow=classic;html=1;rounded=0;entryX=0;entryY=1;entryDx=0;entryDy=0;" parent="1" target="KFn7MSVlhM-9lN72IL1n-5" edge="1">
          <mxGeometry width="50" height="50" relative="1" as="geometry">
            <mxPoint x="452" y="240" as="sourcePoint" />
            <mxPoint x="430" y="230" as="targetPoint" />
          </mxGeometry>
        </mxCell>
        <mxCell id="KFn7MSVlhM-9lN72IL1n-25" value="" style="endArrow=classic;html=1;rounded=0;entryX=0.776;entryY=0.067;entryDx=0;entryDy=0;entryPerimeter=0;exitX=0;exitY=0;exitDx=0;exitDy=0;" parent="1" source="KFn7MSVlhM-9lN72IL1n-5" target="KFn7MSVlhM-9lN72IL1n-1" edge="1">
          <mxGeometry width="50" height="50" relative="1" as="geometry">
            <mxPoint x="600" y="120" as="sourcePoint" />
            <mxPoint x="430" y="230" as="targetPoint" />
          </mxGeometry>
        </mxCell>
        <mxCell id="KFn7MSVlhM-9lN72IL1n-26" value="user&#39;s blood&amp;nbsp;&lt;div&gt;donation requests&lt;/div&gt;" style="edgeLabel;html=1;align=center;verticalAlign=middle;resizable=0;points=[];" parent="KFn7MSVlhM-9lN72IL1n-25" vertex="1" connectable="0">
          <mxGeometry x="-0.336" y="-3" relative="1" as="geometry">
            <mxPoint x="-36" y="80" as="offset" />
          </mxGeometry>
        </mxCell>
        <mxCell id="KFn7MSVlhM-9lN72IL1n-31" value="&lt;span style=&quot;font-size: 12px;&quot;&gt;Status of blood donation&lt;/span&gt;&lt;div&gt;&lt;span style=&quot;font-size: 12px;&quot;&gt;&amp;nbsp;and blood need applications.&lt;/span&gt;&lt;/div&gt;" style="edgeLabel;html=1;align=center;verticalAlign=middle;resizable=0;points=[];" parent="KFn7MSVlhM-9lN72IL1n-25" vertex="1" connectable="0">
          <mxGeometry x="-0.3314" relative="1" as="geometry">
            <mxPoint x="-26" y="-3" as="offset" />
          </mxGeometry>
        </mxCell>
        <mxCell id="KFn7MSVlhM-9lN72IL1n-27" value="" style="endArrow=classic;html=1;rounded=0;exitX=0;exitY=0.5;exitDx=0;exitDy=0;entryX=0.91;entryY=0.233;entryDx=0;entryDy=0;entryPerimeter=0;" parent="1" source="KFn7MSVlhM-9lN72IL1n-5" target="KFn7MSVlhM-9lN72IL1n-1" edge="1">
          <mxGeometry width="50" height="50" relative="1" as="geometry">
            <mxPoint x="380" y="280" as="sourcePoint" />
            <mxPoint x="430" y="230" as="targetPoint" />
          </mxGeometry>
        </mxCell>
        <mxCell id="KFn7MSVlhM-9lN72IL1n-28" value="Blood donation schedule&lt;div&gt;&amp;nbsp;creation request&lt;/div&gt;" style="edgeLabel;html=1;align=center;verticalAlign=middle;resizable=0;points=[];" parent="KFn7MSVlhM-9lN72IL1n-27" vertex="1" connectable="0">
          <mxGeometry x="0.3153" y="-2" relative="1" as="geometry">
            <mxPoint x="24" y="-6" as="offset" />
          </mxGeometry>
        </mxCell>
        <mxCell id="KFn7MSVlhM-9lN72IL1n-32" value="" style="endArrow=classic;html=1;rounded=0;exitX=1;exitY=1;exitDx=0;exitDy=0;entryX=0.933;entryY=1.056;entryDx=0;entryDy=0;entryPerimeter=0;" parent="1" source="KFn7MSVlhM-9lN72IL1n-1" target="KFn7MSVlhM-9lN72IL1n-5" edge="1">
          <mxGeometry width="50" height="50" relative="1" as="geometry">
            <mxPoint x="460" y="280" as="sourcePoint" />
            <mxPoint x="720" y="230" as="targetPoint" />
          </mxGeometry>
        </mxCell>
        <mxCell id="KFn7MSVlhM-9lN72IL1n-33" value="List the number of blood groups." style="edgeLabel;html=1;align=center;verticalAlign=middle;resizable=0;points=[];" parent="KFn7MSVlhM-9lN72IL1n-32" vertex="1" connectable="0">
          <mxGeometry x="-0.3952" relative="1" as="geometry">
            <mxPoint x="52" as="offset" />
          </mxGeometry>
        </mxCell>
        <mxCell id="KFn7MSVlhM-9lN72IL1n-34" value="" style="endArrow=classic;html=1;rounded=0;exitX=0;exitY=0.25;exitDx=0;exitDy=0;" parent="1" source="KFn7MSVlhM-9lN72IL1n-8" edge="1">
          <mxGeometry width="50" height="50" relative="1" as="geometry">
            <mxPoint x="380" y="280" as="sourcePoint" />
            <mxPoint x="420" y="290" as="targetPoint" />
          </mxGeometry>
        </mxCell>
        <mxCell id="KFn7MSVlhM-9lN72IL1n-35" value="blood request" style="edgeLabel;html=1;align=center;verticalAlign=middle;resizable=0;points=[];" parent="KFn7MSVlhM-9lN72IL1n-34" vertex="1" connectable="0">
          <mxGeometry x="-0.1716" relative="1" as="geometry">
            <mxPoint y="-13" as="offset" />
          </mxGeometry>
        </mxCell>
        <mxCell id="KFn7MSVlhM-9lN72IL1n-37" value="" style="endArrow=classic;html=1;rounded=0;exitX=0.417;exitY=-0.011;exitDx=0;exitDy=0;entryX=0.5;entryY=1;entryDx=0;entryDy=0;exitPerimeter=0;" parent="1" source="KFn7MSVlhM-9lN72IL1n-7" target="KFn7MSVlhM-9lN72IL1n-1" edge="1">
          <mxGeometry width="50" height="50" relative="1" as="geometry">
            <mxPoint x="380" y="280" as="sourcePoint" />
            <mxPoint x="430" y="230" as="targetPoint" />
          </mxGeometry>
        </mxCell>
        <mxCell id="KFn7MSVlhM-9lN72IL1n-39" value="QR Code Data" style="edgeLabel;html=1;align=center;verticalAlign=middle;resizable=0;points=[];" parent="KFn7MSVlhM-9lN72IL1n-37" vertex="1" connectable="0">
          <mxGeometry x="0.0457" y="3" relative="1" as="geometry">
            <mxPoint x="3" y="3" as="offset" />
          </mxGeometry>
        </mxCell>
        <mxCell id="KFn7MSVlhM-9lN72IL1n-41" value="" style="endArrow=classic;html=1;rounded=0;exitX=0.081;exitY=0.811;exitDx=0;exitDy=0;entryX=0.5;entryY=0;entryDx=0;entryDy=0;exitPerimeter=0;" parent="1" source="KFn7MSVlhM-9lN72IL1n-1" target="KFn7MSVlhM-9lN72IL1n-6" edge="1">
          <mxGeometry width="50" height="50" relative="1" as="geometry">
            <mxPoint x="380" y="280" as="sourcePoint" />
            <mxPoint x="430" y="230" as="targetPoint" />
          </mxGeometry>
        </mxCell>
        <mxCell id="KFn7MSVlhM-9lN72IL1n-42" value="Reports and statistics&lt;div&gt;&amp;nbsp;on revenue and users.&lt;/div&gt;" style="edgeLabel;html=1;align=center;verticalAlign=middle;resizable=0;points=[];" parent="KFn7MSVlhM-9lN72IL1n-41" vertex="1" connectable="0">
          <mxGeometry x="0.2832" y="-4" relative="1" as="geometry">
            <mxPoint x="24" y="-9" as="offset" />
          </mxGeometry>
        </mxCell>
        <mxCell id="KFn7MSVlhM-9lN72IL1n-43" value="" style="endArrow=classic;html=1;rounded=0;exitX=0.262;exitY=0.944;exitDx=0;exitDy=0;exitPerimeter=0;entryX=1;entryY=0.5;entryDx=0;entryDy=0;" parent="1" source="KFn7MSVlhM-9lN72IL1n-1" target="KFn7MSVlhM-9lN72IL1n-6" edge="1">
          <mxGeometry width="50" height="50" relative="1" as="geometry">
            <mxPoint x="380" y="280" as="sourcePoint" />
            <mxPoint x="430" y="230" as="targetPoint" />
          </mxGeometry>
        </mxCell>
        <mxCell id="KFn7MSVlhM-9lN72IL1n-44" value="Staff and&amp;nbsp;&lt;span style=&quot;background-color: light-dark(#ffffff, var(--ge-dark-color, #121212)); color: light-dark(rgb(0, 0, 0), rgb(255, 255, 255));&quot;&gt;member feedback.&lt;/span&gt;" style="edgeLabel;html=1;align=center;verticalAlign=middle;resizable=0;points=[];" parent="KFn7MSVlhM-9lN72IL1n-43" vertex="1" connectable="0">
          <mxGeometry x="0.2439" y="-2" relative="1" as="geometry">
            <mxPoint x="3" y="-3" as="offset" />
          </mxGeometry>
        </mxCell>
        <mxCell id="0HS6sC1gmbiLIJao1e-f-3" value="" style="endArrow=classic;html=1;rounded=0;entryX=0;entryY=0.75;entryDx=0;entryDy=0;" edge="1" parent="1" target="KFn7MSVlhM-9lN72IL1n-8">
          <mxGeometry width="50" height="50" relative="1" as="geometry">
            <mxPoint x="400" y="300" as="sourcePoint" />
            <mxPoint x="430" y="220" as="targetPoint" />
          </mxGeometry>
        </mxCell>
        <mxCell id="0HS6sC1gmbiLIJao1e-f-4" value="payment request" style="edgeLabel;html=1;align=center;verticalAlign=middle;resizable=0;points=[];" vertex="1" connectable="0" parent="0HS6sC1gmbiLIJao1e-f-3">
          <mxGeometry x="0.1558" y="-1" relative="1" as="geometry">
            <mxPoint as="offset" />
          </mxGeometry>
        </mxCell>
        <mxCell id="0HS6sC1gmbiLIJao1e-f-5" value="" style="endArrow=classic;html=1;rounded=0;exitX=1;exitY=1;exitDx=0;exitDy=0;entryX=0.41;entryY=1.011;entryDx=0;entryDy=0;entryPerimeter=0;" edge="1" parent="1" source="KFn7MSVlhM-9lN72IL1n-6" target="KFn7MSVlhM-9lN72IL1n-1">
          <mxGeometry width="50" height="50" relative="1" as="geometry">
            <mxPoint x="380" y="270" as="sourcePoint" />
            <mxPoint x="430" y="220" as="targetPoint" />
          </mxGeometry>
        </mxCell>
        <mxCell id="0HS6sC1gmbiLIJao1e-f-6" value="Staff account&lt;div&gt;&amp;nbsp;registration requirements&lt;/div&gt;" style="edgeLabel;html=1;align=center;verticalAlign=middle;resizable=0;points=[];" vertex="1" connectable="0" parent="0HS6sC1gmbiLIJao1e-f-5">
          <mxGeometry x="-0.4842" relative="1" as="geometry">
            <mxPoint x="29" y="13" as="offset" />
          </mxGeometry>
        </mxCell>
      </root>
    </mxGraphModel>
  </diagram>
</mxfile>
